<?xml version="1.0" encoding="UTF-8" standalone="no"?>
<!-- Uploaded to: SVG Repo, www.svgrepo.com, Generator: SVG Repo Mixer Tools -->

<svg
   fill="#000000"
   height="800px"
   width="800px"
   version="1.1"
   id="Capa_1"
   viewBox="0 0 402.232 402.232"
   xml:space="preserve"
   sodipodi:docname="slow.svg"
   inkscape:version="1.4 (86a8ad7, 2024-10-11)"
   xmlns:inkscape="http://www.inkscape.org/namespaces/inkscape"
   xmlns:sodipodi="http://sodipodi.sourceforge.net/DTD/sodipodi-0.dtd"
   xmlns="http://www.w3.org/2000/svg"
   xmlns:svg="http://www.w3.org/2000/svg"><defs
   id="defs1" /><sodipodi:namedview
   id="namedview1"
   pagecolor="#ffffff"
   bordercolor="#000000"
   borderopacity="0.25"
   inkscape:showpageshadow="2"
   inkscape:pageopacity="0.0"
   inkscape:pagecheckerboard="0"
   inkscape:deskcolor="#d1d1d1"
   inkscape:zoom="1.06875"
   inkscape:cx="400.46784"
   inkscape:cy="400"
   inkscape:window-width="1920"
   inkscape:window-height="1057"
   inkscape:window-x="-8"
   inkscape:window-y="-8"
   inkscape:window-maximized="1"
   inkscape:current-layer="Capa_1" />
<path
   id="XMLID_239_"
   d="M387.982,55.058c-8.765-4.619-19.36-4.004-27.54,1.582L233.299,143.67V78.664  c0-9.894-5.485-18.99-14.25-23.605c-8.756-4.635-19.36-4.018-27.539,1.568L10.397,180.59C3.918,185.021,0.032,192.363,0,200.228  c-0.022,7.848,3.824,15.219,10.281,19.699L191.379,345.49c8.163,5.664,18.799,6.326,27.601,1.723  c8.803-4.617,14.319-13.727,14.319-23.668v-66.1l127.012,88.06c8.165,5.664,18.799,6.326,27.602,1.707  c8.803-4.602,14.32-13.711,14.32-23.652V78.679C402.232,68.783,396.745,59.689,387.982,55.058z"
   style="fill:#00850a;fill-opacity:1" />
</svg>
